<svg width="48" height="48" viewBox="0 0 48 48" fill="none" xmlns="http://www.w3.org/2000/svg">
<path d="M24 44C21.3736 44 18.7728 43.4827 16.3463 42.4776C13.9198 41.4725 11.715 39.9993 9.85786 38.1421C6.10714 34.3914 4 29.3043 4 24C4 18.6957 6.10714 13.6086 9.85786 9.85786C13.6086 6.10714 18.6957 4 24 4C35 4 44 12 44 22C44 25.1826 42.7357 28.2348 40.4853 30.4853C38.2348 32.7357 35.1826 34 32 34H28.4C27.8 34 27.4 34.4 27.4 35C27.4 35.2 27.6 35.4 27.6 35.6C28.4 36.6 28.8 37.8 28.8 39C29 41.8 26.8 44 24 44ZM24 8C19.7565 8 15.6869 9.68571 12.6863 12.6863C9.68571 15.6869 8 19.7565 8 24C8 28.2435 9.68571 32.3131 12.6863 35.3137C15.6869 38.3143 19.7565 40 24 40C24.6 40 25 39.6 25 39C25 38.6 24.8 38.4 24.8 38.2C24 37.2 23.6 36.2 23.6 35C23.6 32.2 25.8 30 28.6 30H32C34.1217 30 36.1566 29.1571 37.6569 27.6569C39.1571 26.1566 40 24.1217 40 22C40 14.2 32.8 8 24 8ZM13 20C14.6 20 16 21.4 16 23C16 24.6 14.6 26 13 26C11.4 26 10 24.6 10 23C10 21.4 11.4 20 13 20ZM19 12C20.6 12 22 13.4 22 15C22 16.6 20.6 18 19 18C17.4 18 16 16.6 16 15C16 13.4 17.4 12 19 12ZM29 12C30.6 12 32 13.4 32 15C32 16.6 30.6 18 29 18C27.4 18 26 16.6 26 15C26 13.4 27.4 12 29 12ZM35 20C36.6 20 38 21.4 38 23C38 24.6 36.6 26 35 26C33.4 26 32 24.6 32 23C32 21.4 33.4 20 35 20Z" fill="white"/>
</svg>
