<svg width="48" height="48" viewBox="0 0 48 48" fill="none" xmlns="http://www.w3.org/2000/svg">
<g clip-path="url(#clip0_472_2)">
<path fill-rule="evenodd" clip-rule="evenodd" d="M0 24C0 17.6348 2.52856 11.5303 7.02944 7.02944C11.5303 2.52856 17.6348 0 24 0C30.3652 0 36.4697 2.52856 40.9706 7.02944C45.4714 11.5303 48 17.6348 48 24C48 30.3652 45.4714 36.4697 40.9706 40.9706C36.4697 45.4714 30.3652 48 24 48C17.6348 48 11.5303 45.4714 7.02944 40.9706C2.52856 36.4697 0 30.3652 0 24ZM14.3657 36.6857C14.2975 36.9626 14.1748 37.2231 14.0046 37.4519C13.8345 37.6807 13.6204 37.8733 13.3748 38.0183C13.1293 38.1634 12.8573 38.2579 12.5748 38.2965C12.2923 38.335 12.0049 38.3168 11.7295 38.2429C11.4541 38.169 11.1962 38.0408 10.971 37.8659C10.7457 37.6911 10.5576 37.473 10.4177 37.2245C10.2779 36.9761 10.189 36.7022 10.1563 36.4189C10.1236 36.1356 10.1478 35.8487 10.2274 35.5749C11.0454 32.5462 12.8384 29.8714 15.3292 27.9641C17.8199 26.0568 20.8697 25.0233 24.0069 25.0233C27.144 25.0233 30.1938 26.0568 32.6845 27.9641C35.1753 29.8714 36.9683 32.5462 37.7863 35.5749C37.9314 36.1228 37.8536 36.7059 37.5698 37.1965C37.286 37.6871 36.8193 38.0454 36.272 38.1927C35.7247 38.3401 35.1413 38.2646 34.6495 37.9828C34.1577 37.701 33.7976 37.2359 33.648 36.6891C33.0751 34.5706 31.8204 32.6997 30.0777 31.3657C28.335 30.0317 26.2015 29.3088 24.0069 29.3088C21.8122 29.3088 19.6787 30.0317 17.936 31.3657C16.1934 32.6997 14.9386 34.5706 14.3657 36.6891V36.6857ZM15.7097 20.4891C14.7781 20.4882 13.885 20.1173 13.227 19.4579C12.5689 18.7985 12.1997 17.9047 12.2006 16.9731C12.2015 16.0416 12.5724 15.1485 13.2318 14.4904C13.8912 13.8323 14.785 13.4631 15.7166 13.464H15.7269C16.6584 13.4654 17.5513 13.8367 18.2091 14.4964C18.8669 15.1561 19.2357 16.0501 19.2343 16.9817C19.2329 17.9133 18.8615 18.8062 18.2018 19.464C17.5421 20.1217 16.6482 20.4905 15.7166 20.4891H15.7097ZM32.2731 20.4891C31.3416 20.4878 30.4487 20.1164 29.7909 19.4567C29.1331 18.797 28.7644 17.903 28.7657 16.9714C28.7671 16.0398 29.1385 15.1469 29.7982 14.4892C30.4579 13.8314 31.3518 13.4626 32.2834 13.464H32.2903C33.2219 13.4649 34.115 13.8359 34.773 14.4952C35.4311 15.1546 35.8003 16.0484 35.7994 16.98C35.7985 17.9116 35.4276 18.8047 34.7682 19.4628C34.1088 20.1209 33.215 20.4901 32.2834 20.4891H32.2731Z" fill="#CCCCCC"/>
</g>
<defs>
<clipPath id="clip0_472_2">
<rect width="48" height="48" fill="white"/>
</clipPath>
</defs>
</svg>
