<svg width="48" height="48" viewBox="0 0 48 48" fill="none" xmlns="http://www.w3.org/2000/svg">
<path d="M8.69922 36.9L8.95422 36.5445L20.9842 13.7235L21.0097 13.482L15.7072 3.52197C15.6101 3.33984 15.4583 3.19284 15.273 3.10177C15.0878 3.0107 14.8787 2.98017 14.6752 3.01451C14.4717 3.04884 14.2841 3.14629 14.139 3.29309C13.9939 3.43988 13.8987 3.62857 13.8667 3.83247L8.69922 36.9Z" fill="#FFC24A"/>
<path d="M8.84961 36.63L9.04161 36.255L20.9471 13.671L15.6581 3.67203C15.5709 3.49814 15.4297 3.35719 15.2556 3.2703C15.0816 3.18341 14.884 3.15525 14.6926 3.19006C14.5012 3.22486 14.3263 3.32074 14.1939 3.46333C14.0616 3.60593 13.979 3.78757 13.9586 3.98103L8.84961 36.63Z" fill="#FFA712"/>
<path d="M24.8752 21.015L28.8232 16.965L24.8737 9.43351C24.7868 9.27142 24.6575 9.13593 24.4997 9.04148C24.3419 8.94704 24.1614 8.89716 23.9775 8.89716C23.7935 8.89716 23.613 8.94704 23.4552 9.04148C23.2974 9.13593 23.1681 9.27142 23.0812 9.43351L20.9707 13.4565V13.8L24.8752 21.015Z" fill="#F4BD62"/>
<path d="M24.8048 20.85L28.6433 16.92L24.8048 9.60002C24.7419 9.44158 24.6346 9.30468 24.4958 9.20585C24.3569 9.10702 24.1924 9.05047 24.0221 9.04302C23.8518 9.03557 23.683 9.07753 23.536 9.16385C23.3891 9.25018 23.2702 9.37717 23.1938 9.52952L21.0728 13.623L21.0098 13.8315L24.8048 20.85Z" fill="#FFA50E"/>
<path d="M8.70312 36.9015L8.81863 36.7845L9.23712 36.615L24.6271 21.282L24.8221 20.751L20.9836 13.434L8.70312 36.9015Z" fill="#F6820C"/>
<path d="M25.3672 44.634L39.2992 36.8655L35.3182 12.369C35.2897 12.1963 35.2141 12.0348 35.0998 11.9023C34.9855 11.7697 34.8369 11.6712 34.6703 11.6176C34.5037 11.564 34.3255 11.5573 34.1554 11.5983C33.9852 11.6393 33.8296 11.7264 33.7057 11.85L8.69922 36.9L22.5487 44.6325C22.9793 44.8727 23.4642 44.9989 23.9572 44.9989C24.4503 44.9989 24.9352 44.8727 25.3657 44.6325" fill="#FDE068"/>
<path d="M39.1721 36.801L35.2241 12.489C35.2171 12.3238 35.1613 12.1644 35.0637 12.031C34.9661 11.8976 34.8312 11.7961 34.6759 11.7394C34.5206 11.6827 34.3519 11.6733 34.1913 11.7125C34.0307 11.7517 33.8854 11.8377 33.7736 11.9595L8.84961 36.8535L22.5461 44.5035C22.9733 44.7418 23.4542 44.8669 23.9434 44.8669C24.4325 44.8669 24.9135 44.7418 25.3406 44.5035L39.1721 36.801Z" fill="#FCCA3F"/>
<path d="M25.3672 44.4C24.9367 44.6403 24.4518 44.7664 23.9587 44.7664C23.4657 44.7664 22.9808 44.6403 22.5502 44.4L8.81322 36.783L8.69922 36.9L22.5487 44.6325C22.9793 44.8728 23.4642 44.9989 23.9572 44.9989C24.4503 44.9989 24.9352 44.8728 25.3657 44.6325L39.2992 36.8655L39.2647 36.6555L25.3672 44.4Z" fill="#EEAB37"/>
</svg>
