<svg width="48" height="48" viewBox="0 0 48 48" fill="none" xmlns="http://www.w3.org/2000/svg">
<path d="M4 12C4 9.87827 4.84285 7.84344 6.34315 6.34315C7.84344 4.84285 9.87827 4 12 4H36C38.1217 4 40.1566 4.84285 41.6569 6.34315C43.1571 7.84344 44 9.87827 44 12V36C44 38.1217 43.1571 40.1566 41.6569 41.6569C40.1566 43.1571 38.1217 44 36 44H12C9.87827 44 7.84344 43.1571 6.34315 41.6569C4.84285 40.1566 4 38.1217 4 36V12Z" stroke="#AAAAAA" stroke-width="4" stroke-linecap="round" stroke-linejoin="round"/>
<path d="M17 22C19.7614 22 22 19.7614 22 17C22 14.2386 19.7614 12 17 12C14.2386 12 12 14.2386 12 17C12 19.7614 14.2386 22 17 22Z" stroke="#AAAAAA" stroke-width="4" stroke-linecap="round" stroke-linejoin="round"/>
<path d="M29.052 25.2416L12 43.9996H36.266C38.3172 43.9996 40.2844 43.1848 41.7348 41.7344C43.1852 40.284 44 38.3168 44 36.2656V35.9996C44 35.0676 43.65 34.7096 43.02 34.0196L34.96 25.2296C34.5844 24.8198 34.1274 24.4929 33.6183 24.2696C33.1093 24.0462 32.5592 23.9315 32.0034 23.9326C31.4475 23.9338 30.8979 24.0507 30.3897 24.2761C29.8816 24.5015 29.426 24.8303 29.052 25.2416Z" stroke="#AAAAAA" stroke-width="4" stroke-linecap="round" stroke-linejoin="round"/>
</svg>
