<svg width="48" height="48" viewBox="0 0 48 48" fill="none" xmlns="http://www.w3.org/2000/svg">
<g clip-path="url(#clip0_312_2)">
<path d="M37.4697 45.0135H2.96973V7.5135H24.0447L27.0777 4.5915L26.9997 4.5135H2.96973C1.31298 4.5135 -0.0302734 5.85675 -0.0302734 7.5135V45.0135C-0.0302734 46.6703 1.31298 48.0135 2.96973 48.0135H37.4697C39.1265 48.0135 40.4697 46.6703 40.4697 45.0135V23.0453L37.4697 25.9088V45.0135ZM45.6672 1.9425C44.3135 0.645002 42.8195 -0.0127945 41.2258 -0.0127945C38.7313 -0.0127945 36.9118 1.59821 36.4168 2.09175C35.7148 2.78475 15.8308 22.6395 15.8308 22.6395C15.6748 22.7985 15.5608 22.9928 15.5023 23.2088C14.9638 25.1985 12.2645 34.0365 12.2375 34.1243C12.098 34.5773 12.2225 35.0708 12.5563 35.4C12.6725 35.5167 12.8107 35.6093 12.9628 35.6724C13.115 35.7354 13.2781 35.7678 13.4428 35.7676C13.5718 35.7676 13.7016 35.7488 13.829 35.7091C13.9205 35.6783 23.0398 32.7293 24.5405 32.2815C24.7385 32.223 24.9178 32.1158 25.0663 31.9711C26.0135 31.0366 44.2903 13.0433 45.7693 11.5155C47.2985 9.93755 48.059 8.29725 48.0297 6.636C48.002 4.995 47.204 3.4155 45.6672 1.9425ZM43.6145 9.42746C42.7798 10.2885 36.2435 16.7475 24.1872 28.6245L23.2647 29.5342C21.8825 29.9617 18.5727 31.0252 16.0707 31.8322C16.8762 29.172 17.8429 25.9582 18.2742 24.438C20.8505 21.8655 37.8859 4.85625 38.5331 4.21725C38.6592 4.09121 39.8089 2.98646 41.2256 2.98646C42.0297 2.98646 42.8044 3.35321 43.5912 4.10771C44.5317 5.00996 45.0162 5.87696 45.0297 6.68696C45.0447 7.52096 44.5685 8.44271 43.6145 9.42746Z" fill="#78EE76"/>
</g>
<defs>
<clipPath id="clip0_312_2">
<rect width="48" height="48" fill="white"/>
</clipPath>
</defs>
</svg>
