<svg width="48" height="48" viewBox="0 0 48 48" fill="none" xmlns="http://www.w3.org/2000/svg">
<path d="M12 18H6C4.9 18 4 17.1 4 16C4 14.9 4.9 14 6 14H12C13.1 14 14 14.9 14 16C14 17.1 13.1 18 12 18ZM12 24H6C4.9 24 4 24.9 4 26C4 27.1 4.9 28 6 28H12C13.1 28 14 27.1 14 26C14 24.9 13.1 24 12 24ZM39.76 36.58L33.52 30.34C31.8 31.46 29.74 32.1 27.52 31.98C22.78 31.76 18.72 28.06 18.08 23.36C17.8688 21.7979 18.0289 20.2079 18.5473 18.7193C19.0657 17.2306 19.9279 15.8852 21.0638 14.7921C22.1996 13.6991 23.5772 12.8894 25.0847 12.4285C26.5922 11.9677 28.1871 11.8689 29.74 12.14C33.64 12.8 36.88 15.84 37.74 19.7C38.4 22.62 37.76 25.34 36.34 27.5L42.6 33.76C43.38 34.54 43.38 35.8 42.6 36.58C41.82 37.36 40.54 37.36 39.76 36.58ZM34 22C34 18.7 31.3 16 28 16C24.7 16 22 18.7 22 22C22 25.3 24.7 28 28 28C31.3 28 34 25.3 34 22ZM6 38H22C23.1 38 24 37.1 24 36C24 34.9 23.1 34 22 34H6C4.9 34 4 34.9 4 36C4 37.1 4.9 38 6 38Z" fill="white"/>
</svg>
