<svg width="283" height="227" viewBox="0 0 283 227" fill="none" xmlns="http://www.w3.org/2000/svg">
<path d="M68.891 70.7212C71.7807 70.7212 74.2659 69.728 76.3754 67.7416C78.3404 65.7844 79.3229 63.2722 79.3229 60.3511C79.3229 57.4299 78.3404 54.9177 76.3754 52.9605C74.2948 50.8573 71.7807 49.8057 68.891 49.8057C66.0012 49.8057 63.6606 50.8865 61.7822 52.9313C59.6727 54.8885 58.6035 57.4007 58.6035 60.3803C58.6035 63.3599 59.6727 65.8429 61.7244 67.7708C63.6895 69.7572 66.0879 70.7504 68.891 70.7504V70.7212Z" fill="black"/>
<path d="M96.8063 167.44H103.453C109.03 167.44 111.515 165.074 111.515 159.787V105.774C111.515 100.633 110.822 99.2603 110.619 98.9389C110.446 98.676 109.492 97.7997 105.533 97.7997H96.8352V89.2991L123.594 86.2611V100.546C131.368 91.1979 140.615 86.4656 151.191 86.4656C159.658 86.4656 166.507 89.4452 171.564 95.3167C176.563 101.101 179.106 108.988 179.106 118.715V159.787C179.106 165.045 181.649 167.411 187.342 167.411H193.641H195.578H197.369C200.808 167.411 203.669 166.476 206.154 164.607C208.321 163.088 211.038 160.108 214.245 155.726L232.162 131.393L216.413 106.768C212.569 100.75 207.686 97.7997 201.502 97.7997H199.71V88.9194H236.178V97.7997H231.092C226.931 97.7997 226.296 98.6176 226.296 98.6176C226.324 98.7345 226.613 99.9321 229.648 104.781L239.993 121.081L252.101 104.81C255.684 100.224 256.175 98.9097 256.233 98.6468C256.233 98.5884 255.077 97.7705 248.691 97.7705H246.899V88.8901H278.513V97.7705H276.721C272.676 97.7705 269.382 98.7637 266.954 100.692C265.712 101.714 263.371 104.489 259.99 108.929L245.021 128.881L263.515 157.508C267.821 164.11 273.543 167.382 281.027 167.382H282.819V176.233H244.299V167.382H249.385C250.974 167.382 253.632 167.177 253.632 165.863C253.632 165.746 253.517 164.49 250.309 159.728L237.334 139.163L221.441 160.342C218.58 164.256 218.349 165.717 218.349 166.038C218.349 166.476 218.349 167.382 221.21 167.382H225.949V176.262H152.145V167.411H158.618C164.311 167.411 166.825 165.045 166.825 159.758V118.861C166.825 112.289 165.38 106.885 162.49 102.795C159.225 98.0042 154.572 95.6965 148.215 95.6965C143.736 95.6965 138.939 97.8873 134.026 102.24C129.489 106.183 125.964 110.887 123.565 116.291V159.787C123.565 165.045 126.108 167.411 131.801 167.411H138.274V176.291H0V167.44H6.6464C12.2236 167.44 14.7088 165.016 14.7088 159.612V69.6104C14.7088 64.0018 13.5818 62.8626 13.3506 62.6873C12.946 62.4244 11.1255 61.6357 4.73917 61.6357H2.94753V53.1643L26.9613 49.8926V159.641C26.9613 165.045 29.1286 167.44 33.9544 167.44H41.6411H49.2701L55.9165 167.586C59.9621 167.586 61.7537 166.768 62.534 166.097C63.0541 165.629 63.9788 164.11 63.9788 159.787V105.249C63.9788 100.195 62.9096 99.2019 62.6785 99.0558C62.2161 98.676 60.6267 97.7997 54.0092 97.7997H52.2176V89.5036L76.2313 86.2319V159.816C76.2313 164.227 77.0116 165.746 77.5028 166.272C78.0808 166.827 79.5834 167.586 83.2534 167.586L90.9112 167.44H96.8352H96.8063Z" fill="black"/>
<path d="M282.819 0H0V10.9252H282.819V0Z" fill="black"/>
<path d="M282.819 215.144H0V226.069H282.819V215.144Z" fill="black"/>
</svg>
