<svg width="48" height="48" viewBox="0 0 48 48" fill="none" xmlns="http://www.w3.org/2000/svg">
<path d="M39.9999 34.35L35.9999 30.35V8H21.6999L17.6999 12L14.7999 9.2L19.9999 4H35.9999C37.0999 4 38.0419 4.392 38.8259 5.176C39.6099 5.96 40.0012 6.90133 39.9999 8V34.35ZM40.9999 46.6L11.9999 17.6V40H35.9999V35.95L39.9999 39.95V40C39.9999 41.1 39.6086 42.042 38.8259 42.826C38.0432 43.61 37.1012 44.0013 35.9999 44H11.9999C10.8999 44 9.95857 43.6087 9.1759 42.826C8.39324 42.0433 8.00124 41.1013 7.9999 40V16L9.1999 14.8L1.3999 7L4.2499 4.2L43.7999 43.75L40.9999 46.6Z" fill="#CCCCCC"/>
</svg>
