<svg width="48" height="48" viewBox="0 0 48 48" fill="none" xmlns="http://www.w3.org/2000/svg">
<path d="M33.375 6.75C29.6081 6.75 26.265 8.23688 24 10.7925C21.735 8.23688 18.3919 6.75 14.625 6.75C11.3442 6.75397 8.19884 8.05904 5.87894 10.3789C3.55904 12.6988 2.25397 15.8442 2.25 19.125C2.25 32.6887 22.0894 43.5263 22.9331 43.9819C23.261 44.1585 23.6276 44.2509 24 44.2509C24.3724 44.2509 24.739 44.1585 25.0669 43.9819C25.9106 43.5263 45.75 32.6887 45.75 19.125C45.746 15.8442 44.441 12.6988 42.1211 10.3789C39.8012 8.05904 36.6558 6.75397 33.375 6.75ZM32.3456 33.4425C29.7343 35.6584 26.9427 37.6528 24 39.405C21.0573 37.6528 18.2657 35.6584 15.6544 33.4425C11.5912 29.9569 6.75 24.6413 6.75 19.125C6.75 17.0364 7.57968 15.0334 9.05653 13.5565C10.5334 12.0797 12.5364 11.25 14.625 11.25C17.9625 11.25 20.7562 13.0125 21.9169 15.8513C22.0858 16.2651 22.3742 16.6192 22.7452 16.8685C23.1162 17.1178 23.553 17.2509 24 17.2509C24.447 17.2509 24.8838 17.1178 25.2548 16.8685C25.6258 16.6192 25.9142 16.2651 26.0831 15.8513C27.2438 13.0125 30.0375 11.25 33.375 11.25C35.4636 11.25 37.4666 12.0797 38.9435 13.5565C40.4203 15.0334 41.25 17.0364 41.25 19.125C41.25 24.6413 36.4087 29.9569 32.3456 33.4425Z" fill="black"/>
</svg>
