<svg width="48" height="48" viewBox="0 0 48 48" fill="none" xmlns="http://www.w3.org/2000/svg">
<path d="M26 40L40 26M26 40V28C26 27.4696 26.2107 26.9609 26.5858 26.5858C26.9609 26.2107 27.4696 26 28 26H40M26 40H12C10.9391 40 9.92172 39.5786 9.17157 38.8284C8.42143 38.0783 8 37.0609 8 36V12C8 10.9391 8.42143 9.92172 9.17157 9.17157C9.92172 8.42143 10.9391 8 12 8H36C37.0609 8 38.0783 8.42143 38.8284 9.17157C39.5786 9.92172 40 10.9391 40 12V26" stroke="#AAAAAA" stroke-width="4" stroke-linecap="round" stroke-linejoin="round"/>
</svg>
