<svg width="48" height="48" viewBox="0 0 48 48" fill="none" xmlns="http://www.w3.org/2000/svg">
<path d="M5.55401 39.5659L6.76801 31.2419C6.84201 30.6979 7.09001 30.1919 7.47801 29.8019L31 6.24794C31.305 5.93987 31.6841 5.71536 32.1009 5.59593C32.5177 5.47651 32.9581 5.46618 33.38 5.56594C35.539 6.16379 37.4961 7.33446 39.044 8.95394C40.659 10.5125 41.8216 12.4795 42.408 14.6459C42.5078 15.0678 42.4974 15.5083 42.378 15.9251C42.2586 16.3418 42.0341 16.7209 41.726 17.0259L18.178 40.5499C17.787 40.9363 17.2808 41.1849 16.736 41.2579L8.41401 42.4719C8.0209 42.5293 7.6198 42.4932 7.24326 42.3665C6.86671 42.2399 6.52531 42.0263 6.24674 41.743C5.96817 41.4598 5.76028 41.1149 5.63992 40.7363C5.51957 40.3577 5.49013 39.956 5.55401 39.5639M26.55 10.7279L37.276 21.4539" stroke="#AAAAAA" stroke-width="3" stroke-linecap="round" stroke-linejoin="round"/>
</svg>
