<svg width="48" height="48" viewBox="0 0 48 48" fill="none" xmlns="http://www.w3.org/2000/svg">
<path d="M5.99979 16.5C5.99958 14.7596 6.43197 13.0465 7.25808 11.5147C8.08419 9.98285 9.27811 8.6804 10.7324 7.72445C12.1868 6.76851 13.8559 6.18907 15.5898 6.03823C17.3236 5.88739 19.0677 6.1699 20.6653 6.86034C22.2629 7.55078 23.6638 8.62749 24.742 9.99364C25.8202 11.3598 26.5419 12.9725 26.8423 14.6868C27.1426 16.4011 27.0121 18.1631 26.4625 19.8145C25.9129 21.4658 24.9615 22.9546 23.6938 24.147C26.0842 25.307 28.1597 27.0263 29.7442 29.1591C31.3286 31.292 32.3754 33.7755 32.7958 36.399C32.8421 36.6909 32.8304 36.9891 32.7615 37.2765C32.6925 37.564 32.5676 37.835 32.3939 38.0742C32.2203 38.3133 32.0012 38.5159 31.7492 38.6704C31.4972 38.8249 31.2172 38.9282 30.9253 38.9745C30.6334 39.0208 30.3352 39.0091 30.0478 38.9402C29.7603 38.8712 29.4893 38.7464 29.2501 38.5727C29.011 38.399 28.8084 38.1799 28.6539 37.9279C28.4994 37.6759 28.3961 37.3959 28.3498 37.104C27.8998 34.2849 26.4596 31.7186 24.2877 29.8659C22.1158 28.0132 19.3546 26.9954 16.4998 26.9954C13.645 26.9954 10.8838 28.0132 8.71189 29.8659C6.54 31.7186 5.09976 34.2849 4.64979 37.104C4.6033 37.3959 4.49977 37.6759 4.34511 37.9278C4.19044 38.1797 3.98767 38.3987 3.74837 38.5722C3.50908 38.7458 3.23794 38.8705 2.95044 38.9393C2.66295 39.008 2.36472 39.0195 2.07279 38.973C1.78086 38.9265 1.50095 38.823 1.24903 38.6683C0.997116 38.5137 0.77813 38.3109 0.604577 38.0716C0.431024 37.8323 0.306304 37.5612 0.237537 37.2737C0.16877 36.9862 0.157303 36.6879 0.203791 36.396C0.624795 33.7735 1.67192 31.2911 3.25639 29.1593C4.84086 27.0275 6.91596 25.3092 9.30579 24.15C8.26081 23.1688 7.42824 21.9836 6.8596 20.6678C6.29095 19.352 5.99832 17.9335 5.99979 16.5ZM32.9998 12C34.7428 12.0012 36.448 12.5084 37.9084 13.46C39.3688 14.4115 40.5216 15.7665 41.2268 17.3606C41.932 18.9546 42.1593 20.719 41.8811 22.4397C41.603 24.1604 40.8313 25.7634 39.6598 27.054C41.4858 27.9606 43.1084 29.2291 44.4286 30.7825C45.7489 32.336 46.7394 34.1417 47.3398 36.09C47.4587 36.4682 47.4754 36.8712 47.3883 37.2579C47.3011 37.6447 47.1132 38.0015 46.8436 38.2922C46.5739 38.5828 46.2322 38.797 45.8531 38.9129C45.4739 39.0287 45.0708 39.0423 44.6848 38.952C44.2991 38.8622 43.9438 38.6724 43.6547 38.4017C43.3656 38.131 43.1528 37.789 43.0378 37.41C42.5001 35.6706 41.5203 34.1006 40.1941 32.8533C38.868 31.606 37.2408 30.7241 35.4718 30.294C34.9805 30.1754 34.5435 29.8949 34.2311 29.4976C33.9187 29.1003 33.7492 28.6094 33.7498 28.104V27.048C33.7495 26.6291 33.8662 26.2185 34.0867 25.8623C34.3072 25.5061 34.6227 25.2186 34.9978 25.032C35.9073 24.5813 36.6377 23.8363 37.0703 22.9181C37.503 21.9998 37.6125 20.9623 37.381 19.974C37.1496 18.9857 36.5908 18.1046 35.7954 17.474C35.0001 16.8433 34.0148 16.5001 32.9998 16.5C32.4031 16.5 31.8308 16.263 31.4088 15.841C30.9868 15.419 30.7498 14.8467 30.7498 14.25C30.7498 13.6533 30.9868 13.081 31.4088 12.659C31.8308 12.2371 32.4031 12 32.9998 12ZM16.4998 10.5C15.7008 10.4819 14.9062 10.6237 14.1627 10.9169C13.4192 11.2102 12.7418 11.649 12.1703 12.2076C11.5987 12.7663 11.1445 13.4335 10.8344 14.17C10.5242 14.9066 10.3643 15.6978 10.3641 16.497C10.3639 17.2962 10.5234 18.0874 10.8332 18.8241C11.143 19.5609 11.5968 20.2283 12.1681 20.7872C12.7394 21.3462 13.4166 21.7853 14.1599 22.0789C14.9033 22.3725 15.6978 22.5147 16.4968 22.497C18.0645 22.4623 19.5563 21.8153 20.6529 20.6945C21.7495 19.5737 22.3638 18.068 22.3641 16.5C22.3645 14.9319 21.751 13.426 20.655 12.3046C19.559 11.1832 18.0675 10.5355 16.4998 10.5Z" fill="white"/>
</svg>
