<svg width="48" height="48" viewBox="0 0 48 48" fill="none" xmlns="http://www.w3.org/2000/svg">
<path d="M36 25.996H26V35.996C26 36.5264 25.7893 37.0351 25.4142 37.4102C25.0391 37.7853 24.5304 37.996 24 37.996C23.4696 37.996 22.9609 37.7853 22.5858 37.4102C22.2107 37.0351 22 36.5264 22 35.996V25.996H12C11.4696 25.996 10.9609 25.7853 10.5858 25.4102C10.2107 25.0351 10 24.5264 10 23.996C10 23.4655 10.2107 22.9568 10.5858 22.5818C10.9609 22.2067 11.4696 21.996 12 21.996H22V11.996C22 11.4655 22.2107 10.9568 22.5858 10.5818C22.9609 10.2067 23.4696 9.99597 24 9.99597C24.5304 9.99597 25.0391 10.2067 25.4142 10.5818C25.7893 10.9568 26 11.4655 26 11.996V21.996H36C36.5304 21.996 37.0391 22.2067 37.4142 22.5818C37.7893 22.9568 38 23.4655 38 23.996C38 24.5264 37.7893 25.0351 37.4142 25.4102C37.0391 25.7853 36.5304 25.996 36 25.996Z" fill="#AAAAAA"/>
</svg>
