<svg width="54" height="48" viewBox="0 0 54 48" fill="none" xmlns="http://www.w3.org/2000/svg">
<g clip-path="url(#clip0_357_59)">
<path d="M44.3142 15.5419C43.7406 15.3451 43.1622 15.1628 42.5794 14.9951C42.6773 14.5951 42.7674 14.2 42.8474 13.8118C44.1607 7.43681 43.3022 2.30102 40.3697 0.610069C37.5582 -1.01098 32.9601 0.679332 28.3163 4.72081C27.8586 5.11982 27.4111 5.53034 26.9742 5.95196C26.6817 5.6716 26.384 5.39667 26.0813 5.12733C21.2144 0.806069 16.3361 -1.01519 13.4068 0.680595C10.5977 2.3067 9.76595 7.1347 10.9483 13.1764C11.0659 13.7748 11.1987 14.37 11.3466 14.9616C10.6561 15.1579 9.98974 15.3667 9.35206 15.589C3.64595 17.5785 0.00195312 20.6962 0.00195312 23.9301C0.00195312 27.2701 3.91395 30.6202 9.85711 32.6515C10.3389 32.8156 10.8248 32.9675 11.3142 33.1073C11.1552 33.7445 11.0141 34.386 10.891 35.0311C9.76385 40.968 10.6441 45.6819 13.4455 47.2976C16.339 48.9663 21.1954 47.2513 25.9241 43.1177C26.3075 42.7816 26.6825 42.436 27.0487 42.0812C27.5219 42.5378 28.0077 42.981 28.5055 43.4105C33.0862 47.352 37.61 48.9435 40.4087 47.3233C43.2994 45.6499 44.239 40.5859 43.0192 34.4248C42.9231 33.9421 42.8154 33.4619 42.6961 32.9844C43.0371 32.8833 43.3718 32.7793 43.6982 32.6711C49.8767 30.6242 53.8967 27.3147 53.8967 23.9301C53.8967 20.6844 50.135 17.5456 44.3142 15.5419ZM42.9742 30.4859C42.6794 30.5833 42.3771 30.6774 42.0689 30.769C41.3868 28.6096 40.4664 26.3136 39.3398 23.9412C40.4148 21.6254 41.2998 19.3587 41.9628 17.2134C42.5142 17.373 43.0491 17.5412 43.5649 17.7187C48.5523 19.4358 51.5944 21.9741 51.5944 23.9301C51.5944 26.0134 48.3089 28.7181 42.9742 30.4859ZM40.7607 34.872C41.3001 37.5962 41.3769 40.0593 41.0196 41.985C40.6988 43.7153 40.0533 44.8688 39.255 45.3309C37.5567 46.3141 33.9245 45.0362 30.0072 41.6652C29.5441 41.2659 29.0922 40.8538 28.6521 40.4294C30.1708 38.7686 31.6885 36.8379 33.1697 34.6934C35.7752 34.4623 38.2367 34.0842 40.4689 33.5682C40.5764 34.0004 40.6737 34.4351 40.7607 34.872ZM18.3758 45.161C16.7165 45.7469 15.3948 45.7638 14.5958 45.3031C12.8958 44.3227 12.1891 40.5376 13.1531 35.4606C13.2677 34.8607 13.3989 34.264 13.5466 33.6713C15.7542 34.1598 18.1977 34.5109 20.8093 34.7227C22.3007 36.821 23.8622 38.7496 25.4358 40.4385C25.1014 40.7621 24.7591 41.0774 24.4091 41.3842C22.318 43.212 20.2226 44.5088 18.3758 45.161ZM10.602 30.473C7.97395 29.5747 5.80364 28.4073 4.31606 27.1334C2.97922 25.9888 2.30448 24.8522 2.30448 23.9301C2.30448 21.9675 5.23016 19.4644 10.11 17.7631C10.7022 17.5568 11.322 17.3621 11.9651 17.1793C12.6396 19.373 13.5243 21.6667 14.5918 23.9861C13.5104 26.3398 12.6131 28.6701 11.9321 30.8896C11.4853 30.7617 11.0418 30.6228 10.602 30.473ZM13.2078 12.7341C12.195 7.55786 12.8676 3.65323 14.5605 2.67323C16.3634 1.62944 20.3504 3.11765 24.5527 6.84902C24.8267 7.09289 25.0963 7.3417 25.3613 7.59533C23.7954 9.27681 22.2483 11.1911 20.7702 13.277C18.2354 13.512 15.8091 13.8892 13.5784 14.3947C13.4409 13.8444 13.3174 13.2906 13.2078 12.7341ZM36.4556 18.4749C35.9287 17.5648 35.3823 16.6661 34.8167 15.7795C36.5363 15.997 38.1838 16.2856 39.731 16.6385C39.2666 18.1273 38.6876 19.6838 38.0062 21.2795C37.508 20.3344 36.9911 19.3994 36.4556 18.4749ZM26.9752 9.24102C28.0371 10.3915 29.1007 11.676 30.1468 13.0696C28.0247 12.9694 25.899 12.969 23.7769 13.0684C24.8241 11.6875 25.8967 10.4048 26.9752 9.24102ZM17.434 18.4905C16.9052 19.4075 16.3979 20.3367 15.9125 21.2774C15.2422 19.6873 14.6685 18.1238 14.2001 16.6139C15.7377 16.2699 17.3775 15.9886 19.0862 15.7751C18.5143 16.6671 17.9634 17.5726 17.434 18.4905ZM19.1352 32.2488C17.37 32.0518 15.7055 31.785 14.1683 31.4503C14.6441 29.9134 15.2304 28.3166 15.9152 26.6924C16.4025 27.6338 16.912 28.5636 17.443 29.481C17.9891 30.4242 18.5546 31.348 19.1352 32.2488ZM27.0388 38.7814C25.9474 37.6042 24.859 36.3017 23.7961 34.9008C24.8281 34.9412 25.8801 34.9619 26.9493 34.9619C28.0478 34.9619 29.1337 34.9372 30.2026 34.8896C29.1531 36.3158 28.0935 37.6202 27.0388 38.7814ZM38.0278 26.6094C38.7483 28.2515 39.3554 29.84 39.8375 31.3505C38.275 31.7071 36.5878 31.9943 34.8102 32.2075C35.3798 31.3045 35.9314 30.3902 36.4647 29.4652C37.0069 28.525 37.528 27.5728 38.0278 26.6094ZM34.4704 28.3149C33.654 29.7331 32.7917 31.1244 31.8849 32.4865C30.2423 32.6028 28.5961 32.6606 26.9493 32.6598C25.2721 32.6598 23.6407 32.6075 22.0697 32.5056C21.1393 31.1467 20.2605 29.753 19.4354 28.3275C18.6142 26.9097 17.8473 25.4611 17.1361 23.985C17.8455 22.5086 18.6103 21.0593 19.4287 19.6404L19.4285 19.6406C20.2466 18.2213 21.1183 16.8335 22.0417 15.4804C23.6445 15.3591 25.2881 15.296 26.9491 15.296C28.6177 15.296 30.2636 15.3598 31.866 15.4819C32.7801 16.833 33.6462 18.216 34.4628 19.6282C35.2839 21.044 36.0588 22.4862 36.7862 23.9524C36.0663 25.4336 35.2939 26.8887 34.4704 28.3149ZM39.2198 2.60459C41.0245 3.64544 41.7264 7.8427 40.5925 13.3469C40.5201 13.6981 40.4388 14.0558 40.3504 14.4185C38.1142 13.9023 35.6862 13.5185 33.1441 13.28C31.6632 11.1711 30.1287 9.25386 28.5883 7.59407C28.992 7.20491 29.4053 6.82585 29.8278 6.45723C33.8068 2.9947 37.5255 1.62754 39.2198 2.60459ZM26.9493 19.1174C29.6072 19.1174 31.762 21.2722 31.762 23.9301C31.762 26.588 29.6072 28.7427 26.9493 28.7427C24.2914 28.7427 22.1367 26.588 22.1367 23.9301C22.1367 21.2722 24.2914 19.1174 26.9493 19.1174Z" fill="#00D8FF"/>
</g>
<defs>
<clipPath id="clip0_357_59">
<rect width="53.9" height="48" fill="white"/>
</clipPath>
</defs>
</svg>
