<svg width="51" height="48" viewBox="0 0 51 48" fill="none" xmlns="http://www.w3.org/2000/svg">
<g clip-path="url(#clip0_357_61)">
<path d="M34.8985 33.3901C36.757 33.1977 38.1669 31.5956 38.1027 29.6729C38.0388 27.7503 36.4365 26.2121 34.5139 26.2121H34.3859C32.399 26.2763 30.861 27.9425 30.9251 29.9292C30.9893 30.8906 31.3737 31.7237 31.9505 32.3005C29.7716 36.5945 26.4391 39.7348 21.4404 42.3624C18.0438 44.1569 14.5192 44.7978 10.9945 44.3492C8.11059 43.9647 5.86758 42.683 4.45748 40.5679C2.40685 37.4276 2.21466 34.0308 3.94502 30.6342C5.16272 28.1988 7.08508 26.4043 8.30279 25.5071C8.04646 24.674 7.66187 23.2641 7.46967 22.2388C-1.82285 28.968 -0.861473 38.0685 1.95833 42.3624C4.07308 45.567 8.36692 47.5536 13.1093 47.5536C14.3909 47.5536 15.6726 47.4254 16.9544 47.1051C25.1575 45.5028 31.3739 40.632 34.8985 33.3901ZM46.1777 25.4431C41.3071 19.7392 34.1295 16.599 25.9265 16.599H24.9011C24.3244 15.4454 23.1067 14.6762 21.7609 14.6762H21.6326C19.6461 14.7403 18.1082 16.4066 18.1721 18.3934C18.2362 20.316 19.8383 21.8542 21.7609 21.8542H21.889C23.2989 21.79 24.5166 20.8928 25.0292 19.6751H26.1828C31.0534 19.6751 35.6675 21.085 39.8333 23.8409C43.0375 25.9558 45.3446 28.7117 46.6263 32.0441C47.7157 34.7359 47.6516 37.3635 46.498 39.6067C44.7037 43.0033 41.6917 44.8619 37.7183 44.8619C35.1549 44.8619 32.7196 44.0927 31.4378 43.5159C30.733 44.1569 29.4511 45.1822 28.5539 45.8233C31.3097 47.1049 34.1295 47.81 36.8211 47.81C42.9733 47.81 47.5235 44.4132 49.2539 41.0166C51.1123 37.2993 50.984 30.8906 46.1777 25.4431ZM13.6219 34.4793C13.6861 36.4021 15.2882 37.9401 17.2107 37.9401H17.339C19.3257 37.8761 20.8636 36.2097 20.7995 34.223C20.7356 32.3003 19.1333 30.7623 17.2107 30.7623H17.0827C16.9544 30.7623 16.762 30.7623 16.6341 30.8262C14.0065 26.4683 12.9171 21.7259 13.3017 16.5988C13.5578 12.7534 14.8396 9.42079 17.0827 6.66492C18.9411 4.29364 22.5299 3.14007 24.9653 3.07613C31.7583 2.94787 34.642 11.4075 34.8344 14.8043C35.6675 14.9965 37.0774 15.4452 38.0388 15.7656C37.2696 5.38347 30.861 0 24.709 0C18.9411 0 13.6219 4.16577 11.507 10.3182C8.55912 18.5215 10.4817 26.4043 14.0705 32.6209C13.7502 33.0694 13.5578 33.7743 13.6219 34.4793Z" fill="#764ABC"/>
</g>
<defs>
<clipPath id="clip0_357_61">
<rect width="50.37" height="48" fill="white"/>
</clipPath>
</defs>
</svg>
