<svg width="48" height="48" viewBox="0 0 48 48" fill="none" xmlns="http://www.w3.org/2000/svg">
<path fill-rule="evenodd" clip-rule="evenodd" d="M36.5959 11.3657C35.8359 11.5017 34.7638 11.8537 33.0438 12.4257L20.0598 16.7557C18.4038 17.3077 17.2359 17.6977 16.3959 18.0257C16.0875 18.1419 15.7858 18.2748 15.4918 18.4237C15.3198 18.5137 15.2598 18.5637 15.2558 18.5637C15.0632 18.7502 14.91 18.9735 14.8054 19.2204C14.7008 19.4672 14.6469 19.7326 14.6469 20.0007C14.6469 20.2688 14.7008 20.5342 14.8054 20.7811C14.91 21.0279 15.0632 21.2512 15.2558 21.4377C15.3298 21.4925 15.4088 21.54 15.4918 21.5797C15.6918 21.6857 15.9819 21.8157 16.3959 21.9797C17.2359 22.3057 18.4038 22.6957 20.0598 23.2477L20.1719 23.2857C20.7179 23.4657 21.1978 23.6257 21.6398 23.8597C22.7054 24.423 23.5765 25.2942 24.1398 26.3597C24.3738 26.7997 24.5339 27.2797 24.7139 27.8277L24.7538 27.9397C25.3038 29.5957 25.6938 30.7637 26.0218 31.6037C26.1371 31.9124 26.27 32.2143 26.4199 32.5077C26.5099 32.6797 26.5598 32.7397 26.5598 32.7437C26.7463 32.9364 26.9696 33.0895 27.2165 33.1942C27.4634 33.2988 27.7287 33.3527 27.9968 33.3527C28.265 33.3527 28.5303 33.2988 28.7772 33.1942C29.0241 33.0895 29.2474 32.9364 29.4338 32.7437C29.4886 32.6698 29.5361 32.5907 29.5759 32.5077C29.6819 32.3077 29.8118 32.0177 29.9758 31.6017C30.3018 30.7617 30.6919 29.5957 31.2439 27.9417L35.5699 14.9597C36.1439 13.2397 36.4959 12.1637 36.6299 11.4057L36.6399 11.3597C36.6245 11.3623 36.6092 11.365 36.5939 11.3677M35.8939 7.42973C36.9939 7.23373 38.5039 7.17573 39.6639 8.33573C40.8239 9.49573 40.7639 11.0037 40.5699 12.1057C40.3779 13.1897 39.9239 14.5477 39.4139 16.0797L39.3659 16.2237L35.0378 29.2037L35.0179 29.2637C34.4899 30.8477 34.0699 32.1117 33.6999 33.0557C33.3539 33.9457 32.9439 34.8657 32.3239 35.5097C31.764 36.0923 31.0922 36.5557 30.3488 36.8723C29.6055 37.1889 28.8058 37.3521 27.9978 37.3521C27.1899 37.3521 26.3902 37.1889 25.6469 36.8723C24.9035 36.5557 24.2317 36.0923 23.6719 35.5097C23.0519 34.8657 22.6418 33.9457 22.2958 33.0557C21.9258 32.1117 21.5059 30.8477 20.9759 29.2617L20.9558 29.2057C20.7158 28.4837 20.6619 28.3397 20.6039 28.2297C20.416 27.8742 20.1254 27.5836 19.7699 27.3957C19.6599 27.3357 19.5159 27.2837 18.7939 27.0417L18.7379 27.0217C17.1519 26.4937 15.8879 26.0737 14.9419 25.7037C14.0539 25.3577 13.1339 24.9477 12.4899 24.3277C11.9073 23.7679 11.4438 23.0961 11.1272 22.3527C10.8106 21.6094 10.6475 20.8097 10.6475 20.0017C10.6475 19.1938 10.8106 18.3941 11.1272 17.6507C11.4438 16.9074 11.9073 16.2356 12.4899 15.6757C13.1339 15.0557 14.0539 14.6457 14.9419 14.2997C16.1971 13.8313 17.4628 13.3912 18.7379 12.9797L18.7939 12.9597L31.7758 8.63373L31.9198 8.58573C33.4518 8.07573 34.8099 7.62173 35.8939 7.42973Z" fill="#03D100"/>
</svg>
