<svg width="48" height="48" viewBox="0 0 48 48" fill="none" xmlns="http://www.w3.org/2000/svg">
<mask id="mask0_443_14" style="mask-type:luminance" maskUnits="userSpaceOnUse" x="4" y="4" width="40" height="40">
<path d="M4 4.79004H44V43.21H4V4.79004Z" fill="white"/>
</mask>
<g mask="url(#mask0_443_14)">
<path d="M43.9 21.2104C43.7401 21.8684 43.3927 22.4658 42.9 22.9304L36.3 29.3704C36.2332 29.4405 36.1791 29.5217 36.14 29.6104C36.1206 29.7027 36.1206 29.798 36.14 29.8904L37.7 39.0104C37.83 39.6824 37.76 40.3784 37.5 41.0104C37.2591 41.6357 36.8336 42.1728 36.28 42.5504C35.7421 42.9474 35.1058 43.1895 34.44 43.2504H34.18C33.5939 43.2516 33.0166 43.1073 32.5 42.8304L24.3 38.5504C24.2149 38.5012 24.1183 38.4753 24.02 38.4753C23.9217 38.4753 23.8251 38.5012 23.74 38.5504L15.54 42.8504C14.9249 43.1723 14.2327 43.3177 13.54 43.2704C12.8673 43.213 12.2236 42.9708 11.68 42.5704C11.1316 42.1787 10.708 41.637 10.46 41.0104C10.2069 40.3757 10.1376 39.6826 10.26 39.0104L11.82 29.9104C11.8491 29.8193 11.8491 29.7214 11.82 29.6304C11.7889 29.5422 11.7414 29.4608 11.68 29.3904L5.08 22.9104C4.60053 22.4467 4.26096 21.8576 4.1 21.2104C3.90547 20.5579 3.90547 19.8628 4.1 19.2104C4.31987 18.5682 4.71587 18.0007 5.2428 17.5728C5.76973 17.1449 6.40635 16.8738 7.08 16.7904L16.08 15.4704C16.1697 15.4681 16.2553 15.4324 16.32 15.3704C16.3962 15.312 16.4578 15.2366 16.5 15.1504L20.7 6.79037C20.986 6.19037 21.438 5.68437 22 5.33037C22.4272 5.06061 22.9066 4.88432 23.4068 4.8131C23.907 4.74187 24.4166 4.77732 24.9021 4.91712C25.3876 5.05691 25.838 5.29788 26.2237 5.62419C26.6094 5.95049 26.9217 6.35475 27.14 6.81037L31.3 15.1304C31.3502 15.2227 31.4182 15.3043 31.5 15.3704C31.5728 15.4323 31.6645 15.4676 31.76 15.4704L40.9 16.7904C41.564 16.8904 42.188 17.1744 42.7 17.6104C43.202 18.0444 43.582 18.6024 43.8 19.2304C44.012 19.8704 44.048 20.5544 43.9 21.2104Z" fill="#78EE76"/>
</g>
</svg>
