<svg width="48" height="48" viewBox="0 0 48 48" fill="none" xmlns="http://www.w3.org/2000/svg">
<path fill-rule="evenodd" clip-rule="evenodd" d="M22.584 6.616C21.796 7.644 20.908 9.232 19.616 11.548L18.962 12.722L18.844 12.934C18.244 14.014 17.734 14.93 16.916 15.55C16.09 16.178 15.082 16.404 13.91 16.668L13.682 16.72L12.41 17.008C9.89998 17.576 8.18998 17.966 7.02198 18.428C5.87998 18.876 5.63998 19.246 5.54798 19.54C5.44998 19.852 5.44798 20.33 6.12798 21.414C6.82198 22.514 7.99198 23.886 9.69998 25.886L10.568 26.9L10.718 27.074C11.524 28.014 12.196 28.798 12.504 29.79C12.81 30.776 12.708 31.81 12.584 33.066L12.564 33.3L12.432 34.654C12.172 37.318 12 39.154 12.058 40.474C12.118 41.794 12.396 42.158 12.618 42.326C12.814 42.476 13.178 42.64 14.364 42.3C15.57 41.956 17.174 41.222 19.524 40.14L20.716 39.592L20.934 39.492C22.024 38.986 22.968 38.55 24 38.55C25.032 38.55 25.976 38.986 27.066 39.49C27.1386 39.5249 27.2119 39.5583 27.286 39.59L28.476 40.14C30.826 41.222 32.43 41.956 33.636 42.3C34.822 42.64 35.186 42.476 35.382 42.326C35.604 42.158 35.882 41.792 35.942 40.474C36.002 39.154 35.826 37.318 35.568 34.654L35.436 33.3L35.416 33.066C35.292 31.81 35.19 30.776 35.496 29.79C35.804 28.798 36.476 28.014 37.282 27.074L37.432 26.9L38.3 25.886C40.008 23.886 41.178 22.514 41.87 21.414C42.552 20.33 42.55 19.854 42.452 19.54C42.36 19.246 42.12 18.876 40.978 18.428C39.808 17.966 38.1 17.576 35.59 17.008L34.318 16.72C34.24 16.7 34.164 16.684 34.09 16.668C32.918 16.404 31.91 16.178 31.084 15.55C30.264 14.93 29.758 14.016 29.156 12.934L29.04 12.722L28.384 11.548C27.092 9.232 26.204 7.644 25.416 6.616C24.63 5.588 24.228 5.5 24 5.5C23.772 5.5 23.37 5.588 22.584 6.616ZM20.204 4.792C21.154 3.548 22.332 2.5 24 2.5C25.668 2.5 26.844 3.548 27.798 4.792C28.734 6.016 29.728 7.798 30.942 9.976L31.66 11.262C32.444 12.67 32.646 12.97 32.898 13.162C33.138 13.344 33.452 13.448 34.978 13.794L36.378 14.11C38.73 14.642 40.668 15.08 42.078 15.636C43.542 16.214 44.824 17.064 45.318 18.65C45.806 20.22 45.258 21.664 44.41 23.01C43.586 24.32 42.27 25.86 40.662 27.74L39.712 28.85C38.678 30.058 38.462 30.354 38.36 30.68C38.258 31.014 38.266 31.4 38.424 33.01L38.566 34.486C38.81 36.998 39.008 39.046 38.938 40.606C38.868 42.196 38.508 43.72 37.198 44.716C35.862 45.728 34.308 45.616 32.808 45.184C31.354 44.768 29.542 43.934 27.342 42.92L26.03 42.316C24.594 41.656 24.288 41.55 24 41.55C23.712 41.55 23.406 41.656 21.97 42.316L20.66 42.92C18.458 43.934 16.646 44.768 15.192 45.184C13.692 45.614 12.138 45.728 10.804 44.716C9.49198 43.72 9.13198 42.196 9.06198 40.608C8.99198 39.048 9.18998 36.998 9.43398 34.488L9.57798 33.01C9.73398 31.398 9.74198 31.014 9.63798 30.68C9.53798 30.354 9.32198 30.06 8.28798 28.85L7.33798 27.74C5.73198 25.86 4.41598 24.32 3.59198 23.012C2.74198 21.664 2.19398 20.22 2.68198 18.65C3.17598 17.064 4.45798 16.214 5.92198 15.636C7.33198 15.08 9.26998 14.642 11.622 14.11L11.748 14.082L13.02 13.794C14.548 13.448 14.86 13.344 15.102 13.16C15.354 12.97 15.556 12.67 16.342 11.262L17.058 9.976C18.272 7.796 19.266 6.016 20.202 4.792" fill="#78EE76"/>
</svg>
