<svg width="48" height="48" viewBox="0 0 48 48" fill="none" xmlns="http://www.w3.org/2000/svg">
<path d="M43.9462 39.3748C41.3755 34.863 37.3614 31.3474 32.55 29.3941C34.9426 27.5996 36.71 25.0978 37.6018 22.243C38.4935 19.3882 38.4645 16.3252 37.5187 13.4879C36.5729 10.6505 34.7584 8.18271 32.3321 6.43394C29.9058 4.68517 26.9908 3.74414 24 3.74414C21.0091 3.74414 18.0941 4.68517 15.6678 6.43394C13.2416 8.18271 11.427 10.6505 10.4812 13.4879C9.53544 16.3252 9.50638 19.3882 10.3981 22.243C11.2899 25.0978 13.0573 27.5996 15.45 29.3941C10.6386 31.3474 6.62442 34.863 4.05371 39.3748C3.89442 39.6309 3.78825 39.9164 3.74152 40.2144C3.69479 40.5124 3.70845 40.8167 3.78169 41.1093C3.85492 41.4019 3.98624 41.6768 4.16784 41.9176C4.34943 42.1585 4.5776 42.3603 4.83876 42.5112C5.09993 42.6621 5.38877 42.759 5.68811 42.796C5.98745 42.833 6.29118 42.8095 6.58125 42.7268C6.87131 42.6441 7.14179 42.5039 7.3766 42.3146C7.61141 42.1253 7.80575 41.8907 7.94809 41.6248C11.3456 35.7523 17.3456 32.2498 24 32.2498C30.6543 32.2498 36.6543 35.7541 40.0518 41.6248C40.3603 42.1208 40.8496 42.4774 41.4162 42.6192C41.9828 42.761 42.5823 42.6769 43.0881 42.3847C43.5938 42.0925 43.9661 41.6151 44.1263 41.0534C44.2864 40.4917 44.2218 39.8897 43.9462 39.3748ZM14.25 17.9998C14.25 16.0714 14.8218 14.1863 15.8931 12.583C16.9645 10.9796 18.4872 9.72989 20.2688 8.99194C22.0504 8.25399 24.0108 8.0609 25.9021 8.43711C27.7934 8.81332 29.5307 9.74191 30.8943 11.1055C32.2578 12.469 33.1864 14.2063 33.5626 16.0976C33.9388 17.9889 33.7457 19.9493 33.0078 21.7309C32.2698 23.5125 31.0202 25.0353 29.4168 26.1066C27.8134 27.1779 25.9283 27.7498 24 27.7498C21.415 27.7468 18.9368 26.7186 17.109 24.8908C15.2811 23.0629 14.2529 20.5847 14.25 17.9998Z" fill="#888"/>
</svg>
